<svg baseProfile="tiny" xmlns="http://www.w3.org/2000/svg" width="155.825" height="45" viewBox="0 0 155.825 45"><g fill="#045075"><path d="M80.163 28.03c0-.118-.036-.233-.105-.343-.13-.252-.338-.41-.602-.46-.165-.03-.346-.09-.55-.18-.138-.052-.247-.136-.324-.243-.094-.15-.15-.356-.17-.616-.023-.29-.034-.603-.034-.925V17.53c0-.68-.018-1.338-.053-1.958-.037-.647-.167-1.226-.39-1.718-.518-1.186-1.432-2-2.714-2.42-1.234-.403-2.696-.596-4.354-.573l-.107.002-.05.05c-.027.003-.104.008-.21.002-.243-.014-.418-.004-.517.02-.25.046-.495.08-.73.103-.25.024-.502.06-.764.114-1.027.287-1.9.67-2.597 1.138-.71.477-1.303 1.15-1.772 2.017-.12.263-.224.54-.31.82-.08.268-.16.562-.23.87-.06.232-.058.455.002.662.062.22.165.383.306.49.13.096.323.164.59.206.465.074.976.074 1.446 0 .266-.042.46-.11.585-.203.212-.153.357-.366.432-.634.055-.198.117-.39.18-.556.108-.24.236-.47.38-.678.134-.197.285-.36.438-.475.353-.242.72-.432 1.088-.562.263-.087.586-.154.962-.198.772-.09 1.62-.09 2.37 0 .358.044.67.12.935.23.444.168.79.4 1.027.69.243.296.43.71.562 1.23.08.3.08.573.004.814-.083.263-.188.478-.312.645-.266.368-.614.592-1.064.684-.51.103-1.066.228-1.656.37-.17.04-.333.07-.48.08-.183.013-.365.045-.535.094-.164.042-.313.062-.443.062-.174 0-.357.027-.524.076-.34.068-.69.126-1.033.172-.36.048-.715.122-1.055.22-.873.258-1.685.557-2.414.886-.768.347-1.383.888-1.825 1.6-.15.227-.28.48-.378.755l-.28.77-.012.047c-.025.147-.043.288-.055.42-.012.124-.028.237-.05.343l-.004.786c0 .755.112 1.413.333 1.953.293.736.676 1.317 1.136 1.727.45.403 1.046.766 1.77 1.08.18.076.376.135.58.173.18.033.362.073.526.113.113.037.197.048.34.024.01 0 .034.002.074.01.122.056.257.084.403.084.098 0 .198.01.297.03l.342.005c.124.022.253.034.383.034s.264-.012.4-.035h.24c.096 0 .21-.015.344-.04.25-.046.506-.08.763-.102.285-.025.556-.076.804-.15.408-.12.795-.26 1.15-.413.36-.155.7-.332 1.02-.53.22-.146.447-.317.672-.508.192-.16.39-.27.627-.332.043.036.083.072.12.107.114.114.213.27.293.457.1.24.217.452.344.63.22.305.6.547 1.16.742.327.114.662.172.995.172.222 0 .45-.026.697-.084.112-.037.22-.057.32-.057.16 0 .316-.03.484-.098.28-.14.506-.357.67-.647.172-.3.218-.672.136-1.11-.025-.124-.03-.193-.03-.23zm-5.253-6.09c0 .45-.006.9-.018 1.34-.01.396-.08.747-.21 1.05-.24.632-.584 1.137-1.024 1.5-.456.38-1.016.707-1.668.978-.14.06-.288.1-.438.12-.182.024-.374.062-.59.116-.085.028-.17.043-.25.043-.022 0-.043 0-.066-.003-.174-.015-.354.008-.514.062-.135.038-.313.053-.527.042-.227-.01-.413-.037-.575-.083-.232-.046-.46-.025-.684-.066-.325-.11-.633-.248-.916-.41-.27-.157-.49-.35-.652-.574-.104-.146-.195-.31-.268-.49-.068-.163-.103-.347-.103-.56-.022-.478.02-.888.127-1.218.104-.324.262-.604.47-.83.21-.235.47-.434.77-.594.308-.166.646-.306.988-.414.185-.046.353-.086.503-.12.153-.037.324-.078.516-.126.33-.087.693-.137 1.078-.148.415-.012.807-.065 1.165-.158.097 0 .184-.008.265-.02.068-.01.132-.015.19-.015l.05-.005.7-.14c.24-.047.453-.095.644-.143l.053-.02c.057-.028.122-.042.197-.042.13 0 .24-.022.326-.07.202.006.265.028.256.02.102.074.156.17.17.305.025.205.036.43.036.67zM96.356 23.316c-.05-.288-.096-.51-.145-.68l-.01-.032c-.245-.565-.56-1.04-.93-1.41-.362-.364-.792-.695-1.277-.986-.126-.076-.256-.14-.387-.194l-.35-.14c-.472-.188-.952-.35-1.43-.48l-1.427-.4c-.312-.097-.63-.17-.947-.22-.29-.043-.583-.11-.874-.2-.47-.142-.947-.267-1.42-.373-.435-.097-.83-.257-1.18-.474-.296-.183-.54-.348-.73-.493-.158-.122-.3-.337-.423-.643-.04-.1-.076-.226-.108-.376-.027-.122-.022-.24.016-.375.125-.543.352-.914.69-1.134.37-.24.848-.427 1.413-.558.107-.02.216-.038.326-.05.12-.01.237-.028.35-.05h.226l.04-.013c.113-.038.263-.057.442-.057s.328.02.44.057l.03.008c.143.03.288.036.43.022.074-.008.148.004.227.035l.03.01c.346.09.672.185.97.276.274.084.53.213.752.373.347.28.62.598.817.95.103.166.182.34.232.512.076.262.238.47.484.624.153.092.387.153.736.193.335.038.62.028.815-.022.083-.017.166-.017.248 0 .166.033.335.017.498-.05l.052-.02.038-.038c.025-.026.062-.05.105-.072.098-.05.18-.105.245-.173l.05-.067c.06-.12.102-.278.13-.486.027-.21.013-.416-.044-.614-.094-.328-.19-.633-.286-.907-.1-.286-.237-.57-.408-.838-.66-1.074-1.6-1.835-2.795-2.262-1.168-.417-2.622-.615-4.327-.593h-.107l-.045.046c-.01 0-.022-.003-.037-.006-.15-.03-.276-.03-.384 0-.183.023-.348.045-.495.068-.15.023-.308.047-.47.07l-.027.005c-.467.117-.92.242-1.343.37-.44.135-.847.314-1.22.54-.484.314-.92.682-1.295 1.093-.38.418-.687.916-.898 1.46-.06.116-.098.232-.113.343-.01.062-.034.142-.072.237l-.015.05c-.05.268-.084.58-.108.958-.024.388 0 .74.077 1.044.046.184.086.356.12.517.038.18.097.36.174.54.225.524.54.968.943 1.32.382.335.81.64 1.257.9.202.126.42.23.652.307.19.063.402.142.648.24.762.31 1.59.533 2.457.664.82.125 1.627.312 2.394.558.1.062.203.093.304.093.02 0 .056.005.104.02l.77.28c.236.086.453.195.66.33.303.175.554.366.743.566.18.188.322.485.433.9.013.037.034.116.06.274.016.092.01.172-.02.244l-.013.04c-.15.657-.398 1.125-.742 1.388-.37.282-.88.515-1.5.686-.11.022-.23.04-.358.05-.146.012-.293.03-.46.06-.05.01-.147.026-.32.026l-.065.008c-.163.04-.37.062-.618.062-.244 0-.438-.02-.574-.06l-.265-.01-.698-.104c-.388-.113-.755-.23-1.093-.34-.32-.107-.614-.26-.877-.457-.355-.25-.645-.615-.86-1.093-.086-.17-.155-.357-.21-.56-.072-.282-.22-.503-.44-.66-.1-.07-.26-.12-.502-.164-.203-.035-.415-.065-.63-.09-.225-.024-.448-.03-.674-.02-.24.016-.43.05-.572.107l-.033.016c-.197.11-.338.226-.43.35l-.035.06c-.06.145-.093.326-.106.555-.015.235.006.434.06.6.12.4.253.777.397 1.113.146.342.33.675.552.993.412.586.907 1.068 1.47 1.435.557.362 1.213.667 1.942.9.2.076.396.133.583.17.17.034.347.073.53.12l.063.007c.157 0 .286.01.383.027.148.052.315.072.513.06.127-.01.245.003.352.04l.04.013h.404c.132.023.3.035.514.035s.38-.012.515-.035h.324l.052-.006c.214-.043.433-.064.648-.064.25 0 .503-.025.752-.075l.03-.01c.197-.064.4-.113.606-.145.23-.037.464-.093.694-.17.74-.262 1.416-.582 2.01-.95.616-.383 1.128-.9 1.52-1.538.125-.2.238-.425.338-.673.1-.25.184-.506.252-.76.054-.186.08-.375.08-.562 0-.138.022-.278.06-.417l.01-.423c0-.21-.005-.41-.017-.596-.014-.19-.046-.375-.094-.548zM113.366 23.316c-.048-.28-.096-.508-.144-.68l-.013-.033c-.247-.565-.56-1.04-.93-1.41-.365-.365-.794-.696-1.277-.986-.128-.076-.258-.14-.39-.194l-.042-.017c-.1-.04-.202-.08-.305-.123-.474-.188-.954-.35-1.43-.48l-1.426-.4c-.313-.097-.633-.17-.948-.22-.288-.043-.582-.11-.874-.202-.473-.14-.95-.266-1.418-.37-.437-.1-.833-.26-1.18-.476-.296-.18-.54-.347-.73-.492-.16-.122-.3-.337-.423-.643-.04-.1-.077-.228-.11-.377-.025-.122-.02-.24.018-.375.125-.542.35-.913.69-1.133.37-.24.848-.427 1.413-.558.108-.02.217-.038.325-.048.122-.014.237-.03.35-.053h.228l.04-.013c.113-.038.263-.057.442-.057.18 0 .33.02.442.057l.03.008c.142.03.287.036.43.022.072-.007.15.004.227.035l.03.008c.34.092.667.185.97.277.273.084.53.213.75.373.347.282.62.598.818.95.103.165.183.337.233.512.077.262.24.47.485.625.153.092.387.153.735.193.336.04.622.03.817-.02.082-.018.164-.018.246 0 .168.032.336.016.5-.05l.05-.02.04-.04c.025-.025.06-.05.103-.07.098-.048.177-.105.245-.173l.032-.03.02-.038c.06-.12.102-.278.13-.486.027-.208.014-.415-.044-.614-.094-.33-.19-.634-.283-.907-.102-.288-.24-.57-.41-.84-.66-1.073-1.6-1.834-2.796-2.262-1.168-.417-2.625-.615-4.328-.593h-.107l-.044.046c-.012 0-.024-.002-.038-.005-.15-.03-.275-.03-.385 0-.18.023-.346.045-.494.068-.15.023-.307.047-.47.07l-.026.005c-.464.116-.917.24-1.343.37-.44.135-.848.314-1.222.54-.484.315-.92.683-1.294 1.094-.38.417-.686.915-.898 1.46-.06.12-.097.234-.112.34-.01.062-.033.143-.07.24l-.016.05c-.05.27-.086.59-.108.956-.025.386 0 .737.077 1.043.046.185.087.357.122.517.038.18.096.362.172.54.225.523.542.968.944 1.32.384.336.81.64 1.26.9.202.127.42.23.65.307.193.064.406.142.65.24.76.31 1.587.533 2.455.664.822.124 1.628.31 2.395.557.103.063.203.093.307.093.02 0 .054.004.1.02l.772.28c.234.084.452.193.66.33.303.174.553.365.743.565.178.188.322.485.432.9.013.037.033.116.06.274.016.092.01.172-.02.244l-.013.04c-.148.658-.398 1.125-.743 1.39-.368.28-.88.514-1.5.685-.11.022-.23.038-.356.05-.146.012-.293.03-.462.06-.05.01-.145.026-.32.026l-.064.01c-.164.04-.37.06-.618.06-.243 0-.438-.02-.574-.06l-.265-.01-.698-.1c-.382-.11-.75-.227-1.093-.34-.32-.108-.614-.26-.877-.457-.355-.25-.645-.614-.86-1.092-.085-.17-.155-.357-.208-.56-.074-.28-.22-.502-.442-.66-.104-.07-.263-.12-.502-.164-.204-.036-.416-.065-.63-.09-.224-.024-.447-.03-.674-.02-.242.016-.43.05-.573.107l-.032.016c-.195.11-.336.226-.43.35l-.033.06c-.06.146-.094.328-.106.556-.015.234.006.433.062.598.118.404.25.78.395 1.114.146.342.332.675.553.993.415.587.91 1.07 1.47 1.435.56.362 1.215.667 1.942.9.2.076.397.133.583.17.17.034.348.073.53.12l.064.007c.156 0 .285.01.382.027.147.052.313.073.51.06.128-.01.248.003.354.04l.04.013h.404c.133.023.3.035.515.035.213 0 .38-.012.514-.035h.326l.052-.006c.213-.043.432-.064.647-.064.25 0 .503-.025.75-.075l.033-.01c.196-.064.4-.113.605-.145.232-.037.464-.093.694-.17.74-.263 1.417-.583 2.01-.95.616-.383 1.128-.9 1.52-1.538.124-.197.237-.423.337-.672.098-.242.183-.5.254-.76.053-.188.08-.377.08-.563 0-.138.02-.278.06-.417l.01-.423c0-.21-.005-.41-.018-.595-.014-.187-.045-.372-.094-.55zM131.738 19.365c-.013-.17-.03-.338-.054-.507l-.01-.036c-.09-.325-.166-.646-.22-.954-.062-.344-.154-.678-.276-.993-.115-.302-.22-.602-.31-.893-.1-.323-.238-.627-.408-.895-.262-.45-.586-.93-.962-1.426-.145-.193-.326-.393-.538-.593-.203-.192-.404-.363-.6-.51l-.04-.024c-.063-.03-.115-.073-.163-.128-.092-.107-.213-.193-.358-.255-.596-.378-1.27-.684-2.005-.91-.746-.23-1.634-.333-2.64-.31l-.105.003-.03.03c-.09-.02-.177-.02-.254.002-.11.002-.212.008-.3.02-.1.012-.21.03-.34.056-.324.07-.632.135-.923.193-.308.062-.612.155-.906.278-.982.408-1.82.925-2.492 1.537-.67.61-1.272 1.34-1.804 2.186-.144.266-.27.54-.38.818-.104.263-.214.524-.33.78-.148.347-.254.722-.315 1.114-.058.366-.133.735-.226 1.108-.03.14-.037.29-.022.444.007.087-.003.167-.035.247l-.018.047v.41c-.024.137-.03.294-.018.48.012.174.028.31.052.415v.46l.006.057c.044.2.077.403.1.602.025.226.063.438.108.616.02.104.03.18.03.23 0 .093.015.197.05.328.09.272.162.545.218.81.062.3.156.588.277.853.332.81.75 1.554 1.24 2.21.493.664 1.098 1.233 1.81 1.697.403.238.788.442 1.134.604.116.06.224.098.32.112.03.006.084.02.17.064l.025.01c.195.074.403.142.618.2.214.06.428.113.646.162.126.024.265.044.416.058.13.01.248.026.345.045.115.03.23.044.342.044.074 0 .163.01.263.03l.338.005c.11.022.24.034.397.034.154 0 .298-.013.426-.035h.327l.052-.007c.236-.048.428-.023.66-.07.254-.045.496-.085.726-.12.25-.037.506-.107.744-.202.935-.31 1.722-.72 2.34-1.217.616-.494 1.17-1.135 1.65-1.904.316-.512.573-1.098.764-1.74.187-.6-.033-.92-.26-1.087-.113-.104-.283-.17-.52-.198-.19-.024-.396-.042-.61-.055-.226-.012-.45-.006-.675.02-.25.027-.423.068-.536.126-.32.146-.547.38-.678.7-.098.24-.216.477-.355.71-.128.237-.283.465-.458.673-.17.2-.373.377-.615.53-.215.15-.45.276-.697.373-.262.103-.555.2-.87.29-.3.086-.71.13-1.222.13-.51 0-.922-.044-1.222-.13l-.072-.01c-.188 0-.252-.018-.28-.025l-.487-.14c-.15-.044-.285-.096-.423-.164-1.166-.506-2.016-1.366-2.53-2.572-.083-.165-.145-.34-.187-.52l-.142-.58c-.018-.072-.026-.145-.026-.217 0-.105-.015-.224-.04-.363l-.016-.05c-.022-.056-.02-.11.004-.178.05-.136.088-.206.11-.24.088-.132.15-.177.197-.2.078-.048.19-.077.336-.086.182-.01.362-.017.544-.017h8.96c.207 0 .448.007.725.02.542.022 1.172.035 1.644-.04.27-.04.476-.123.63-.246l.022-.02c.16-.162.26-.413.302-.767.04-.316.032-.61-.018-.856-.023-.16-.04-.32-.052-.475zm-6.735-5.015c.59.242 1.076.54 1.445.887.376.355.727.795 1.037 1.305.244.424.436.885.57 1.375.03.114.032.22 0 .323-.038.123-.082.22-.12.27-.058.066-.223.175-.695.175h-.08c-.493-.012-.915-.018-1.267-.018h-5.32c-.328 0-.722.006-1.18.018h-.098c-.422 0-.613-.076-.71-.15-.052-.033-.113-.09-.13-.233-.02-.156-.01-.325.03-.505.04-.19.096-.37.162-.536.065-.162.13-.296.2-.414.312-.604.668-1.113 1.057-1.513.378-.39.89-.72 1.525-.984.148-.043.307-.08.472-.114.18-.036.363-.078.572-.13.033-.012.08-.014.13-.007.128.015.242-.002.346-.052h.527c.186 0 .364.02.53.062.19.048.368.09.534.125.155.033.31.07.463.115zM137.182 4.777l-.03-.034c-.213-.214-.53-.322-.937-.322h-.964l-.05-.004-.056.028c-.114-.022-.216-.01-.31.033-.31.114-.52.26-.638.44-.152.212-.22.497-.207.846.01.288.017.56.017.812v21.21c0 .31.006.606.018.885.014.326.092.604.232.83l.02.028c.166.2.406.307.714.32.232.013.477.02.75.02h.52l.033-.01c.18-.044.333-.077.456-.1.202-.037.367-.152.473-.33.144-.23.216-.536.216-.91V6.4c0-.28-.007-.56-.02-.835-.012-.317-.093-.583-.238-.788zM155.48 11.493c-.153-.09-.34-.144-.557-.16-.177-.01-.366-.017-.56-.017-.355 0-.687.012-.984.036-.368.03-.66.18-.864.444-.14.168-.246.37-.313.602-.06.205-.12.387-.19.57-.07.21-.14.428-.21.65-.066.21-.146.418-.238.63-.054.133-.092.248-.116.35-.02.078-.052.17-.094.276-.12.285-.223.584-.31.888-.077.28-.174.56-.286.83-.053.132-.092.247-.117.352-.02.08-.05.173-.096.285-.07.19-.144.398-.215.624-.065.208-.145.417-.234.62l-.015.043c-.044.176-.077.322-.102.437-.23.514-.432 1.052-.594 1.6-.16.54-.348 1.082-.553 1.606-.165.422-.31.868-.43 1.324-.113.427-.26.835-.444 1.228-.047.112-.12.268-.218.448-.024.047-.053.08-.066.08-.005 0-.02-.002-.065-.018-.06-.017-.126-.05-.177-.177-.07-.178-.14-.35-.206-.5-.117-.324-.233-.655-.35-.993-.12-.35-.253-.69-.392-1.015l-.023-.043c-.018-.026-.025-.05-.025-.08 0-.123-.032-.25-.09-.364-.278-.674-.535-1.374-.763-2.08-.234-.726-.495-1.438-.777-2.12-.11-.266-.2-.536-.268-.802-.075-.295-.174-.58-.294-.843-.112-.27-.215-.55-.307-.836-.097-.298-.205-.594-.32-.873-.115-.295-.22-.595-.31-.893-.096-.31-.204-.62-.326-.94-.094-.208-.18-.406-.262-.594-.104-.234-.273-.426-.505-.572-.234-.146-.563-.21-1.022-.197-.394.013-.74.02-1.042.02l-.05-.006-.057.027c-.106-.02-.203-.01-.293.026-.27.065-.456.186-.55.343-.117.163-.224.446-.067.858.092.24.16.43.213.584.205.506.405 1.016.59 1.514.188.503.4 1.032.634 1.565.42 1.027.833 2.053 1.242 3.08.408 1.026.823 2.054 1.24 3.07.116.33.233.646.35.95.115.298.242.61.387.95.187.465.373.94.56 1.43.184.482.385.98.598 1.48.14.324.273.648.4.973.128.323.25.67.36 1.025.078.276.074.533-.013.786-.1.29-.197.54-.29.752-.143.33-.278.658-.407.988-.122.312-.265.613-.42.895-.153.27-.334.517-.54.734-.194.202-.438.352-.765.46-.202.08-.44.122-.706.122-.282 0-.545-.02-.782-.062-.508-.146-.903-.02-1.11.31-.1.133-.16.303-.175.505-.012.156-.018.322-.018.49 0 .237.006.46.018.664.015.25.097.47.244.65.13.186.312.312.546.376.177.047.358.094.547.142l.063.008c.12 0 .215.008.286.027.113.027.228.042.343.042s.23-.015.325-.04c.107-.018.21-.02.31 0 .17.03.336.017.49-.04.327-.07.623-.148.88-.23.272-.087.547-.206.83-.36.786-.492 1.407-1.193 1.847-2.084.415-.84.817-1.71 1.204-2.606.047-.146.09-.284.124-.415.035-.127.073-.238.113-.335.67-1.597 1.308-3.237 1.895-4.88.58-1.623 1.214-3.256 1.886-4.854.188-.468.37-.947.545-1.425.18-.488.36-.963.538-1.403.073-.17.136-.337.185-.5.046-.147.103-.31.17-.488.256-.654.513-1.314.77-1.98.256-.665.513-1.323.76-1.958.033-.065.056-.127.072-.193.007-.028.017-.055.038-.098.072-.167.155-.405.255-.727.173-.56-.1-.845-.29-.972z"/></g><g fill="#2BBAD9"><path d="M15.984 13.118l8.856.015L17.05 27l15.62.016L17.49 0h-1.47c-2.56 0-4.928 1.366-6.21 3.586L.96 18.913c-1.28 2.22-1.28 4.955 0 7.174L3.394 30.3l7.635-13.59c1.573-3.172 4.43-3.592 4.954-3.592zM48.235 27.032l.546-.945c1.283-2.22 1.283-4.955 0-7.174L39.934 3.586C38.653 1.366 36.283 0 33.72 0h-4.428L44.48 27.028l3.755.004z"/><path d="M26.797 37.395c-3.538.145-5.233-2.077-5.532-2.62l-4.228-7.758-7.662 13.64.435.756C11.092 43.633 13.46 45 16.02 45h17.7c2.563 0 4.932-1.366 6.213-3.587l2.31-4.002-15.446-.015z"/><path d="M17.027 26.998l.01.02.012-.02h-.023z"/></g></svg>