<?xml version="1.0" encoding="utf-8"?>
<!-- Generator: Adobe Illustrator 16.0.0, SVG Export Plug-In . SVG Version: 6.00 Build 0)  -->
<!DOCTYPE svg PUBLIC "-//W3C//DTD SVG 1.1 Tiny//EN" "http://www.w3.org/Graphics/SVG/1.1/DTD/svg11-tiny.dtd">
<svg version="1.1" baseProfile="tiny" id="Layer_1" xmlns="http://www.w3.org/2000/svg" xmlns:xlink="http://www.w3.org/1999/xlink"
	 x="0px" y="0px" width="155.825px" height="45px" viewBox="0 0 155.825 45" xml:space="preserve">
<g>
	<g>
		<path fill="#045075" d="M80.163,28.029c0-0.117-0.036-0.232-0.105-0.342c-0.131-0.252-0.338-0.411-0.602-0.46
			c-0.165-0.031-0.346-0.09-0.55-0.18c-0.138-0.052-0.247-0.136-0.324-0.243c-0.094-0.149-0.15-0.356-0.17-0.616
			c-0.023-0.291-0.034-0.603-0.034-0.925v-7.734c0-0.678-0.018-1.337-0.053-1.957c-0.037-0.647-0.167-1.226-0.389-1.718
			c-0.519-1.186-1.433-2-2.715-2.42c-1.235-0.403-2.697-0.596-4.355-0.573l-0.107,0.001l-0.048,0.049
			c-0.028,0.004-0.105,0.009-0.211,0.003c-0.243-0.014-0.418-0.004-0.517,0.021c-0.249,0.045-0.495,0.08-0.73,0.102
			c-0.251,0.024-0.502,0.061-0.764,0.114c-1.026,0.286-1.899,0.669-2.596,1.137c-0.709,0.477-1.303,1.15-1.772,2.017
			c-0.121,0.263-0.225,0.539-0.31,0.82c-0.082,0.268-0.16,0.562-0.231,0.87c-0.059,0.232-0.058,0.455,0.002,0.662
			c0.062,0.219,0.165,0.383,0.306,0.489c0.129,0.097,0.323,0.165,0.589,0.207c0.466,0.074,0.977,0.074,1.447,0
			c0.266-0.042,0.459-0.109,0.585-0.203c0.213-0.153,0.358-0.366,0.433-0.634c0.055-0.198,0.117-0.391,0.179-0.556
			c0.109-0.241,0.237-0.469,0.38-0.678c0.135-0.197,0.286-0.359,0.439-0.475c0.353-0.242,0.721-0.432,1.088-0.562
			c0.263-0.087,0.586-0.154,0.962-0.198c0.772-0.091,1.621-0.091,2.37,0c0.358,0.044,0.671,0.12,0.935,0.229
			c0.444,0.169,0.79,0.402,1.027,0.691c0.243,0.296,0.431,0.709,0.562,1.23c0.08,0.299,0.081,0.573,0.004,0.814
			c-0.083,0.262-0.188,0.477-0.312,0.644c-0.266,0.368-0.614,0.592-1.064,0.684c-0.51,0.104-1.066,0.229-1.656,0.37
			c-0.171,0.042-0.333,0.07-0.48,0.08c-0.183,0.014-0.365,0.046-0.535,0.095c-0.165,0.042-0.314,0.062-0.444,0.062
			c-0.174,0-0.357,0.027-0.524,0.076c-0.341,0.068-0.689,0.126-1.033,0.172c-0.36,0.048-0.715,0.122-1.055,0.219
			c-0.873,0.259-1.685,0.558-2.414,0.887c-0.769,0.347-1.384,0.888-1.826,1.599c-0.151,0.228-0.279,0.482-0.378,0.756l-0.28,0.771
			l-0.012,0.046c-0.025,0.147-0.043,0.288-0.055,0.421c-0.012,0.123-0.028,0.236-0.049,0.342l-0.005,0.786
			c0,0.754,0.112,1.412,0.333,1.952c0.294,0.736,0.677,1.317,1.137,1.727c0.451,0.403,1.046,0.766,1.77,1.079
			c0.181,0.077,0.376,0.136,0.58,0.174c0.181,0.033,0.362,0.073,0.526,0.113c0.113,0.037,0.197,0.048,0.339,0.024
			c0.011,0,0.035,0.002,0.075,0.01c0.122,0.056,0.257,0.084,0.403,0.084c0.099,0,0.199,0.01,0.298,0.03l0.342,0.005
			c0.125,0.023,0.254,0.035,0.384,0.035s0.264-0.012,0.399-0.035h0.24c0.097,0,0.211-0.014,0.345-0.04
			c0.25-0.045,0.506-0.079,0.763-0.101c0.285-0.025,0.556-0.076,0.804-0.15c0.408-0.12,0.795-0.259,1.15-0.413
			c0.36-0.155,0.701-0.332,1.021-0.53c0.22-0.146,0.446-0.317,0.671-0.508c0.192-0.161,0.391-0.27,0.627-0.332
			c0.043,0.036,0.083,0.072,0.12,0.107c0.114,0.114,0.213,0.269,0.293,0.457c0.101,0.241,0.217,0.453,0.344,0.631
			c0.221,0.305,0.6,0.547,1.159,0.742c0.328,0.114,0.663,0.172,0.996,0.172c0.222,0,0.449-0.026,0.697-0.084
			c0.112-0.037,0.22-0.057,0.319-0.057c0.161,0,0.317-0.029,0.485-0.098c0.28-0.141,0.506-0.357,0.671-0.647
			c0.171-0.3,0.217-0.672,0.135-1.109C80.167,28.134,80.163,28.065,80.163,28.029z M74.91,21.939c0,0.451-0.006,0.902-0.018,1.34
			c-0.011,0.397-0.081,0.748-0.21,1.051c-0.239,0.632-0.584,1.137-1.024,1.501c-0.456,0.378-1.016,0.706-1.668,0.977
			c-0.141,0.06-0.288,0.101-0.438,0.12c-0.182,0.024-0.374,0.062-0.591,0.116c-0.084,0.028-0.168,0.043-0.25,0.043l0,0
			c-0.021,0-0.042-0.001-0.065-0.003c-0.174-0.015-0.354,0.008-0.514,0.062c-0.135,0.038-0.313,0.053-0.527,0.042
			c-0.227-0.011-0.413-0.037-0.575-0.083c-0.232-0.046-0.459-0.025-0.684-0.066c-0.325-0.109-0.633-0.247-0.916-0.41
			c-0.27-0.156-0.49-0.35-0.652-0.573c-0.104-0.146-0.195-0.311-0.268-0.49c-0.068-0.163-0.103-0.347-0.103-0.559
			c-0.022-0.479,0.021-0.889,0.127-1.219c0.104-0.324,0.262-0.604,0.469-0.831c0.212-0.234,0.471-0.433,0.77-0.593
			c0.309-0.166,0.647-0.306,0.989-0.414c0.185-0.046,0.353-0.086,0.503-0.121c0.153-0.036,0.324-0.077,0.516-0.125
			c0.33-0.087,0.692-0.137,1.077-0.148c0.415-0.012,0.807-0.065,1.165-0.158c0.097-0.001,0.184-0.008,0.265-0.02
			c0.068-0.009,0.132-0.015,0.19-0.015l0.051-0.005c0.233-0.046,0.467-0.093,0.7-0.14c0.238-0.047,0.452-0.095,0.643-0.143
			l0.053-0.02c0.057-0.028,0.122-0.042,0.197-0.042c0.131,0,0.239-0.022,0.326-0.069c0.202,0.005,0.265,0.027,0.256,0.02
			c0.102,0.073,0.156,0.17,0.171,0.304C74.899,21.473,74.91,21.699,74.91,21.939z"/>
		<path fill="#045075" d="M96.356,23.316c-0.049-0.288-0.096-0.51-0.145-0.68L96.2,22.604c-0.245-0.565-0.559-1.04-0.93-1.411
			c-0.362-0.363-0.792-0.694-1.277-0.985c-0.126-0.076-0.256-0.141-0.387-0.194l-0.35-0.14c-0.472-0.188-0.952-0.35-1.429-0.481
			c-0.465-0.128-0.942-0.262-1.428-0.4c-0.311-0.096-0.63-0.169-0.946-0.219c-0.289-0.043-0.583-0.111-0.874-0.201
			c-0.47-0.141-0.946-0.266-1.418-0.372c-0.436-0.098-0.832-0.258-1.18-0.475c-0.297-0.183-0.542-0.348-0.73-0.493
			c-0.159-0.122-0.301-0.337-0.424-0.643c-0.04-0.1-0.076-0.226-0.108-0.376c-0.026-0.122-0.021-0.24,0.017-0.375
			c0.125-0.542,0.352-0.913,0.691-1.133c0.368-0.239,0.847-0.427,1.412-0.558c0.108-0.021,0.217-0.038,0.327-0.049
			c0.12-0.012,0.237-0.029,0.349-0.051h0.227l0.04-0.013c0.113-0.038,0.263-0.057,0.442-0.057s0.328,0.019,0.441,0.057l0.03,0.008
			c0.142,0.029,0.287,0.036,0.428,0.022c0.075-0.008,0.149,0.004,0.228,0.035l0.029,0.009c0.346,0.092,0.672,0.186,0.971,0.277
			c0.273,0.084,0.53,0.213,0.751,0.373c0.347,0.282,0.619,0.599,0.817,0.95c0.104,0.167,0.183,0.34,0.233,0.513
			c0.076,0.262,0.238,0.471,0.484,0.624c0.153,0.092,0.387,0.153,0.736,0.193c0.335,0.039,0.621,0.029,0.815-0.021
			c0.083-0.017,0.166-0.017,0.248,0c0.166,0.033,0.335,0.017,0.498-0.049l0.052-0.02l0.038-0.039
			c0.025-0.026,0.062-0.05,0.105-0.072c0.098-0.049,0.179-0.105,0.245-0.173l0.049-0.067c0.06-0.12,0.103-0.278,0.13-0.486
			c0.028-0.209,0.014-0.416-0.043-0.614c-0.093-0.328-0.189-0.633-0.285-0.907c-0.1-0.287-0.237-0.57-0.408-0.839
			c-0.66-1.074-1.6-1.835-2.795-2.262c-1.169-0.417-2.623-0.615-4.328-0.593l-0.107,0.001l-0.045,0.045
			c-0.011-0.001-0.023-0.003-0.038-0.006c-0.149-0.029-0.276-0.029-0.384,0c-0.182,0.023-0.347,0.045-0.494,0.068
			c-0.151,0.023-0.308,0.047-0.47,0.07l-0.027,0.005c-0.467,0.117-0.919,0.242-1.343,0.371c-0.439,0.134-0.847,0.313-1.221,0.539
			c-0.483,0.314-0.92,0.682-1.294,1.093c-0.381,0.418-0.687,0.916-0.898,1.459c-0.06,0.117-0.098,0.233-0.113,0.344
			c-0.009,0.062-0.033,0.142-0.071,0.237l-0.015,0.05c-0.049,0.268-0.084,0.581-0.108,0.958c-0.024,0.387,0.001,0.738,0.077,1.043
			c0.046,0.184,0.086,0.356,0.12,0.517c0.038,0.178,0.097,0.36,0.174,0.539c0.225,0.524,0.541,0.968,0.943,1.32
			c0.383,0.335,0.81,0.64,1.258,0.9c0.202,0.126,0.421,0.229,0.652,0.307c0.19,0.063,0.403,0.142,0.649,0.239
			c0.762,0.31,1.589,0.534,2.457,0.665c0.821,0.124,1.627,0.311,2.394,0.557c0.102,0.062,0.204,0.093,0.305,0.093
			c0.021,0,0.056,0.004,0.104,0.019l0.769,0.28c0.237,0.086,0.454,0.195,0.66,0.331c0.304,0.174,0.555,0.365,0.744,0.565
			c0.178,0.188,0.321,0.485,0.432,0.899c0.013,0.038,0.034,0.117,0.061,0.275c0.015,0.092,0.009,0.172-0.021,0.244l-0.013,0.039
			c-0.149,0.658-0.398,1.126-0.742,1.389c-0.369,0.282-0.88,0.515-1.501,0.686c-0.109,0.022-0.229,0.039-0.357,0.049
			c-0.146,0.013-0.293,0.031-0.461,0.06c-0.05,0.012-0.146,0.027-0.32,0.027l-0.064,0.008c-0.163,0.041-0.371,0.062-0.618,0.062
			c-0.244,0-0.438-0.02-0.574-0.06l-0.265-0.01L87.23,27.07c-0.388-0.113-0.755-0.229-1.093-0.341
			c-0.32-0.106-0.614-0.259-0.877-0.456c-0.355-0.251-0.645-0.615-0.86-1.093c-0.086-0.17-0.155-0.357-0.209-0.561
			c-0.073-0.281-0.22-0.502-0.44-0.659c-0.102-0.069-0.262-0.121-0.503-0.164c-0.203-0.035-0.415-0.065-0.63-0.09
			c-0.225-0.024-0.448-0.031-0.674-0.019c-0.241,0.015-0.429,0.049-0.572,0.106l-0.033,0.016c-0.196,0.112-0.337,0.227-0.43,0.351
			l-0.034,0.06c-0.059,0.145-0.093,0.326-0.106,0.555c-0.014,0.235,0.007,0.434,0.062,0.599c0.119,0.402,0.252,0.778,0.396,1.114
			c0.146,0.342,0.331,0.675,0.552,0.993c0.413,0.585,0.908,1.067,1.471,1.434c0.557,0.362,1.213,0.667,1.942,0.901
			c0.201,0.075,0.396,0.132,0.583,0.168c0.171,0.035,0.347,0.074,0.529,0.12l0.064,0.008c0.157,0,0.286,0.01,0.383,0.027
			c0.147,0.053,0.314,0.073,0.512,0.06c0.127-0.008,0.245,0.004,0.352,0.04l0.041,0.014h0.403c0.133,0.023,0.302,0.035,0.515,0.035
			s0.381-0.012,0.515-0.035h0.325l0.052-0.006c0.214-0.043,0.433-0.064,0.648-0.064c0.25,0,0.503-0.025,0.752-0.075l0.031-0.009
			c0.196-0.065,0.399-0.114,0.605-0.146c0.231-0.037,0.464-0.093,0.694-0.169c0.74-0.263,1.416-0.583,2.011-0.952
			c0.615-0.382,1.127-0.899,1.52-1.537c0.124-0.199,0.237-0.425,0.337-0.673c0.099-0.249,0.184-0.506,0.252-0.759
			c0.054-0.187,0.081-0.376,0.081-0.563c0-0.138,0.021-0.278,0.06-0.417l0.01-0.423c0-0.209-0.006-0.409-0.018-0.596
			C96.436,23.673,96.404,23.489,96.356,23.316z"/>
		<path fill="#045075" d="M113.366,23.316c-0.048-0.28-0.096-0.508-0.144-0.679l-0.013-0.034c-0.246-0.565-0.56-1.04-0.93-1.411
			c-0.364-0.364-0.793-0.695-1.276-0.985c-0.128-0.076-0.258-0.141-0.389-0.194l-0.043-0.017c-0.102-0.04-0.203-0.081-0.306-0.123
			c-0.474-0.188-0.954-0.351-1.429-0.481c-0.466-0.128-0.942-0.262-1.427-0.4c-0.312-0.096-0.632-0.169-0.947-0.219
			c-0.288-0.043-0.582-0.111-0.874-0.202c-0.473-0.141-0.949-0.267-1.418-0.372c-0.437-0.098-0.833-0.258-1.18-0.475
			c-0.296-0.181-0.541-0.347-0.73-0.492c-0.159-0.122-0.301-0.337-0.423-0.643c-0.041-0.1-0.077-0.227-0.109-0.376
			c-0.026-0.122-0.022-0.24,0.017-0.375c0.125-0.542,0.351-0.913,0.691-1.133c0.368-0.239,0.847-0.427,1.412-0.558
			c0.108-0.021,0.217-0.038,0.325-0.048c0.122-0.013,0.237-0.03,0.351-0.052h0.227l0.04-0.013c0.112-0.038,0.262-0.057,0.441-0.057
			c0.181,0,0.329,0.019,0.442,0.057l0.03,0.008c0.142,0.029,0.287,0.036,0.429,0.022c0.073-0.007,0.15,0.004,0.228,0.035
			l0.028,0.009c0.341,0.092,0.668,0.185,0.971,0.277c0.273,0.084,0.53,0.213,0.751,0.373c0.346,0.282,0.618,0.598,0.817,0.95
			c0.103,0.165,0.183,0.337,0.233,0.512c0.076,0.262,0.238,0.471,0.484,0.625c0.153,0.092,0.387,0.153,0.735,0.193
			c0.336,0.039,0.622,0.029,0.817-0.021c0.082-0.017,0.164-0.017,0.246,0c0.168,0.033,0.336,0.017,0.5-0.049l0.051-0.02l0.038-0.039
			c0.026-0.026,0.062-0.051,0.104-0.072c0.098-0.047,0.177-0.104,0.245-0.172l0.031-0.03l0.019-0.038
			c0.06-0.12,0.103-0.278,0.13-0.486c0.028-0.209,0.015-0.416-0.043-0.615c-0.094-0.33-0.189-0.634-0.283-0.907
			c-0.102-0.287-0.24-0.57-0.41-0.838c-0.659-1.074-1.601-1.835-2.796-2.263c-1.167-0.417-2.624-0.615-4.327-0.593l-0.107,0.001
			l-0.044,0.045c-0.013-0.001-0.025-0.003-0.039-0.006c-0.151-0.029-0.275-0.029-0.385,0c-0.181,0.023-0.346,0.045-0.494,0.068
			c-0.151,0.023-0.307,0.047-0.469,0.07l-0.027,0.005c-0.464,0.116-0.917,0.241-1.343,0.371c-0.439,0.134-0.848,0.313-1.222,0.539
			c-0.484,0.315-0.919,0.683-1.294,1.094c-0.38,0.417-0.686,0.915-0.898,1.46c-0.06,0.119-0.097,0.234-0.112,0.34
			c-0.01,0.062-0.033,0.143-0.071,0.239l-0.015,0.05c-0.05,0.27-0.086,0.592-0.108,0.957c-0.025,0.386,0,0.737,0.077,1.043
			c0.045,0.184,0.086,0.356,0.121,0.516c0.038,0.18,0.096,0.362,0.172,0.54c0.225,0.523,0.542,0.968,0.944,1.32
			c0.384,0.336,0.81,0.64,1.259,0.9c0.203,0.127,0.421,0.23,0.651,0.307c0.193,0.064,0.406,0.142,0.649,0.239
			c0.761,0.31,1.588,0.534,2.456,0.665c0.822,0.124,1.628,0.311,2.395,0.557c0.103,0.063,0.203,0.093,0.307,0.093
			c0.019,0,0.054,0.004,0.101,0.019l0.771,0.28c0.234,0.085,0.452,0.194,0.659,0.331c0.304,0.174,0.554,0.365,0.744,0.565
			c0.178,0.188,0.322,0.485,0.432,0.899c0.013,0.038,0.033,0.117,0.06,0.275c0.016,0.092,0.01,0.172-0.02,0.244l-0.013,0.039
			c-0.147,0.658-0.397,1.125-0.742,1.389c-0.368,0.282-0.879,0.515-1.501,0.686c-0.109,0.022-0.229,0.038-0.355,0.049
			c-0.147,0.013-0.294,0.031-0.463,0.06c-0.049,0.012-0.145,0.027-0.32,0.027l-0.064,0.008c-0.164,0.041-0.371,0.062-0.618,0.062
			c-0.243,0-0.438-0.02-0.574-0.06l-0.265-0.01l-0.698-0.101c-0.381-0.111-0.749-0.227-1.092-0.341
			c-0.321-0.107-0.614-0.26-0.877-0.456c-0.355-0.251-0.645-0.614-0.861-1.092c-0.084-0.17-0.154-0.358-0.207-0.562
			c-0.074-0.28-0.22-0.501-0.442-0.66c-0.104-0.068-0.263-0.12-0.502-0.163c-0.204-0.036-0.416-0.065-0.63-0.09
			c-0.224-0.024-0.447-0.03-0.674-0.019c-0.242,0.015-0.43,0.049-0.573,0.106l-0.033,0.016c-0.195,0.112-0.336,0.227-0.43,0.35
			l-0.033,0.061c-0.059,0.146-0.094,0.328-0.106,0.556c-0.014,0.234,0.007,0.433,0.063,0.598c0.118,0.404,0.251,0.779,0.395,1.114
			c0.146,0.342,0.332,0.675,0.553,0.993c0.415,0.586,0.91,1.068,1.471,1.434c0.558,0.362,1.214,0.667,1.941,0.901
			c0.201,0.075,0.397,0.132,0.583,0.168c0.171,0.035,0.348,0.074,0.53,0.12l0.064,0.008c0.157,0,0.286,0.01,0.383,0.027
			c0.147,0.053,0.313,0.074,0.511,0.06c0.127-0.009,0.247,0.004,0.353,0.04l0.041,0.014h0.403c0.133,0.023,0.301,0.035,0.515,0.035
			c0.213,0,0.381-0.012,0.514-0.035h0.327l0.052-0.006c0.213-0.043,0.432-0.064,0.647-0.064c0.25,0,0.503-0.025,0.751-0.075
			l0.032-0.009c0.196-0.065,0.399-0.114,0.605-0.146c0.232-0.037,0.464-0.093,0.694-0.169c0.74-0.264,1.417-0.584,2.011-0.952
			c0.615-0.382,1.127-0.899,1.52-1.537c0.123-0.197,0.236-0.423,0.336-0.672c0.098-0.242,0.183-0.499,0.254-0.761
			c0.053-0.187,0.08-0.376,0.08-0.562c0-0.138,0.021-0.278,0.06-0.417l0.011-0.423c0-0.209-0.006-0.409-0.019-0.595
			C113.446,23.678,113.415,23.493,113.366,23.316z"/>
		<path fill="#045075" d="M131.738,19.365c-0.013-0.169-0.03-0.338-0.054-0.507l-0.009-0.036c-0.092-0.325-0.167-0.646-0.221-0.954
			c-0.062-0.344-0.154-0.678-0.276-0.993c-0.115-0.302-0.22-0.602-0.309-0.893c-0.1-0.323-0.239-0.627-0.409-0.895
			c-0.262-0.451-0.586-0.931-0.962-1.426c-0.145-0.194-0.326-0.394-0.538-0.594c-0.203-0.192-0.404-0.363-0.6-0.509l-0.04-0.025
			c-0.063-0.031-0.115-0.073-0.163-0.128c-0.092-0.107-0.213-0.193-0.358-0.255c-0.595-0.378-1.27-0.684-2.004-0.91
			c-0.746-0.229-1.634-0.333-2.639-0.309l-0.106,0.002l-0.03,0.031c-0.091-0.021-0.177-0.021-0.254,0.001
			c-0.11,0.002-0.212,0.008-0.301,0.02c-0.099,0.012-0.21,0.031-0.338,0.056c-0.325,0.07-0.633,0.134-0.924,0.192
			c-0.308,0.062-0.612,0.155-0.906,0.278c-0.982,0.407-1.821,0.924-2.492,1.536c-0.669,0.609-1.272,1.34-1.804,2.186
			c-0.145,0.266-0.272,0.541-0.382,0.818c-0.103,0.262-0.213,0.523-0.328,0.78c-0.149,0.346-0.255,0.721-0.316,1.113
			c-0.058,0.366-0.133,0.735-0.226,1.108c-0.028,0.14-0.036,0.289-0.021,0.444c0.007,0.087-0.003,0.167-0.035,0.247l-0.018,0.047
			v0.411c-0.024,0.136-0.03,0.293-0.018,0.479c0.012,0.174,0.028,0.31,0.052,0.415v0.46l0.007,0.057
			c0.044,0.2,0.077,0.403,0.101,0.602c0.024,0.226,0.062,0.438,0.107,0.616c0.021,0.104,0.03,0.181,0.03,0.23
			c0,0.093,0.015,0.197,0.049,0.328c0.09,0.272,0.163,0.545,0.219,0.811c0.062,0.298,0.156,0.587,0.277,0.852
			c0.333,0.81,0.75,1.553,1.24,2.21c0.494,0.663,1.099,1.232,1.81,1.696c0.404,0.238,0.789,0.442,1.135,0.604
			c0.116,0.059,0.224,0.097,0.319,0.111c0.031,0.006,0.085,0.021,0.171,0.064l0.025,0.011c0.196,0.073,0.404,0.141,0.619,0.2
			c0.214,0.059,0.428,0.112,0.646,0.161c0.126,0.024,0.265,0.044,0.416,0.058c0.129,0.01,0.248,0.026,0.345,0.045
			c0.115,0.028,0.229,0.043,0.342,0.043c0.074,0,0.163,0.01,0.263,0.029l0.338,0.006c0.109,0.023,0.24,0.035,0.397,0.035
			c0.154,0,0.298-0.013,0.426-0.035h0.326l0.052-0.006c0.237-0.048,0.429-0.023,0.661-0.069c0.254-0.046,0.496-0.086,0.726-0.12
			c0.25-0.038,0.506-0.108,0.744-0.203c0.935-0.312,1.722-0.721,2.34-1.218c0.616-0.494,1.171-1.135,1.651-1.904
			c0.315-0.511,0.572-1.097,0.763-1.74c0.187-0.599-0.033-0.92-0.259-1.086c-0.114-0.104-0.284-0.169-0.521-0.198
			c-0.19-0.024-0.396-0.042-0.611-0.055c-0.225-0.012-0.449-0.006-0.674,0.019c-0.249,0.028-0.422,0.069-0.535,0.127
			c-0.319,0.146-0.547,0.381-0.678,0.701c-0.098,0.24-0.216,0.476-0.355,0.709c-0.129,0.237-0.284,0.465-0.459,0.673
			c-0.17,0.2-0.373,0.378-0.615,0.531c-0.215,0.15-0.45,0.276-0.697,0.373c-0.262,0.103-0.555,0.199-0.869,0.289
			c-0.3,0.087-0.711,0.13-1.223,0.13c-0.511,0-0.922-0.043-1.222-0.13l-0.072-0.01c-0.188,0-0.252-0.017-0.279-0.024
			c-0.162-0.047-0.325-0.093-0.488-0.141c-0.151-0.043-0.285-0.095-0.423-0.163c-1.166-0.506-2.016-1.366-2.529-2.572
			c-0.084-0.165-0.146-0.34-0.188-0.52c-0.048-0.199-0.095-0.392-0.142-0.581c-0.018-0.071-0.026-0.144-0.026-0.216
			c0-0.105-0.014-0.224-0.039-0.363l-0.016-0.05c-0.022-0.056-0.021-0.11,0.004-0.178c0.049-0.136,0.088-0.206,0.11-0.241
			c0.088-0.131,0.15-0.176,0.197-0.2c0.078-0.047,0.191-0.076,0.336-0.085c0.181-0.011,0.361-0.017,0.543-0.017h8.961
			c0.206,0,0.447,0.006,0.724,0.018c0.543,0.023,1.173,0.036,1.645-0.038c0.269-0.042,0.476-0.124,0.63-0.247l0.022-0.021
			c0.161-0.161,0.261-0.412,0.302-0.766c0.039-0.316,0.032-0.609-0.018-0.856C131.767,19.679,131.749,19.521,131.738,19.365z
			 M125.003,14.35c0.59,0.242,1.076,0.541,1.445,0.887c0.376,0.355,0.727,0.795,1.037,1.305c0.244,0.424,0.436,0.885,0.569,1.375
			c0.032,0.114,0.033,0.22,0.002,0.323c-0.039,0.123-0.083,0.219-0.122,0.271c-0.057,0.065-0.222,0.174-0.694,0.174l-0.08,0
			c-0.493-0.012-0.915-0.018-1.267-0.018h-5.319c-0.329,0-0.723,0.006-1.181,0.018l-0.098,0.001c-0.422,0-0.613-0.077-0.711-0.15
			c-0.051-0.034-0.112-0.091-0.13-0.234c-0.02-0.156-0.009-0.325,0.031-0.505c0.041-0.19,0.096-0.371,0.162-0.536
			c0.065-0.163,0.13-0.297,0.199-0.415c0.313-0.604,0.669-1.113,1.058-1.513c0.378-0.389,0.891-0.72,1.525-0.984
			c0.149-0.042,0.308-0.08,0.473-0.113c0.179-0.036,0.363-0.078,0.572-0.131c0.033-0.011,0.08-0.013,0.13-0.006
			c0.128,0.016,0.242-0.001,0.346-0.051h0.527c0.186,0,0.364,0.021,0.53,0.062c0.19,0.048,0.368,0.089,0.534,0.125
			C124.695,14.268,124.849,14.306,125.003,14.35z"/>
		<path fill="#045075" d="M137.182,4.777l-0.029-0.034c-0.214-0.214-0.53-0.322-0.938-0.322h-0.964L135.2,4.416l-0.056,0.028
			c-0.114-0.022-0.216-0.01-0.31,0.033c-0.31,0.114-0.52,0.261-0.638,0.44c-0.152,0.212-0.221,0.497-0.207,0.846
			c0.012,0.288,0.018,0.559,0.018,0.812v21.209c0,0.31,0.006,0.607,0.018,0.886c0.014,0.326,0.092,0.604,0.232,0.83l0.021,0.028
			c0.165,0.199,0.405,0.307,0.713,0.321c0.231,0.012,0.476,0.019,0.749,0.019h0.521l0.032-0.009c0.18-0.045,0.333-0.078,0.456-0.101
			c0.203-0.037,0.368-0.152,0.474-0.33c0.144-0.229,0.216-0.536,0.216-0.909V6.4c0-0.279-0.006-0.56-0.018-0.835
			C137.408,5.248,137.327,4.982,137.182,4.777z"/>
		<path fill="#045075" d="M155.479,11.493c-0.152-0.09-0.339-0.144-0.556-0.159c-0.177-0.012-0.366-0.018-0.56-0.018
			c-0.355,0-0.687,0.012-0.984,0.036c-0.367,0.03-0.66,0.181-0.863,0.444c-0.141,0.168-0.246,0.371-0.313,0.602
			c-0.061,0.205-0.121,0.387-0.189,0.57c-0.07,0.211-0.142,0.428-0.211,0.65c-0.066,0.209-0.146,0.418-0.238,0.63
			c-0.054,0.133-0.092,0.248-0.116,0.349c-0.02,0.079-0.051,0.171-0.093,0.277c-0.119,0.285-0.223,0.584-0.309,0.888
			c-0.078,0.281-0.175,0.559-0.287,0.831c-0.053,0.131-0.092,0.246-0.117,0.351c-0.02,0.08-0.051,0.173-0.096,0.285
			c-0.071,0.191-0.144,0.399-0.215,0.625c-0.065,0.208-0.145,0.417-0.234,0.62l-0.015,0.043c-0.044,0.176-0.077,0.322-0.102,0.437
			c-0.231,0.514-0.433,1.052-0.595,1.599c-0.161,0.542-0.348,1.083-0.553,1.607c-0.165,0.422-0.311,0.868-0.43,1.324
			c-0.113,0.427-0.26,0.835-0.444,1.228c-0.046,0.112-0.12,0.268-0.217,0.448c-0.024,0.047-0.053,0.08-0.066,0.08
			c-0.005,0-0.02-0.002-0.065-0.018c-0.06-0.017-0.127-0.051-0.178-0.177c-0.071-0.178-0.141-0.349-0.206-0.499
			c-0.117-0.325-0.233-0.656-0.35-0.994c-0.12-0.35-0.253-0.691-0.392-1.015l-0.023-0.043c-0.018-0.026-0.025-0.05-0.025-0.08
			c0-0.123-0.032-0.25-0.09-0.364c-0.278-0.674-0.535-1.374-0.763-2.08c-0.234-0.726-0.495-1.438-0.777-2.12
			c-0.111-0.266-0.201-0.536-0.268-0.802c-0.074-0.295-0.173-0.581-0.293-0.843c-0.112-0.269-0.215-0.55-0.307-0.836
			c-0.096-0.297-0.204-0.593-0.32-0.872c-0.114-0.295-0.218-0.595-0.31-0.893c-0.095-0.31-0.203-0.621-0.325-0.939
			c-0.094-0.209-0.18-0.407-0.262-0.595c-0.104-0.234-0.273-0.426-0.505-0.572c-0.234-0.146-0.563-0.21-1.022-0.197
			c-0.394,0.012-0.741,0.018-1.042,0.018l-0.051-0.005l-0.056,0.027c-0.106-0.021-0.203-0.011-0.293,0.025
			c-0.269,0.065-0.456,0.186-0.55,0.343c-0.117,0.164-0.224,0.447-0.067,0.859c0.092,0.241,0.161,0.43,0.213,0.584
			c0.206,0.506,0.406,1.016,0.592,1.514c0.187,0.503,0.4,1.032,0.633,1.565c0.42,1.026,0.833,2.052,1.242,3.078
			c0.408,1.027,0.823,2.055,1.239,3.071c0.117,0.329,0.234,0.646,0.352,0.951c0.114,0.297,0.241,0.609,0.386,0.948
			c0.187,0.466,0.373,0.942,0.559,1.431c0.185,0.482,0.386,0.98,0.599,1.48c0.14,0.324,0.272,0.648,0.399,0.973
			c0.128,0.323,0.249,0.671,0.36,1.025c0.078,0.276,0.074,0.533-0.013,0.786c-0.1,0.289-0.197,0.541-0.291,0.752
			c-0.142,0.329-0.277,0.658-0.406,0.988c-0.122,0.312-0.265,0.613-0.421,0.895c-0.152,0.27-0.333,0.518-0.539,0.735
			c-0.194,0.202-0.438,0.352-0.765,0.461c-0.202,0.08-0.439,0.121-0.706,0.121c-0.281,0-0.544-0.021-0.781-0.062
			c-0.508-0.146-0.903-0.021-1.111,0.309c-0.1,0.134-0.158,0.304-0.174,0.506c-0.012,0.157-0.018,0.323-0.018,0.492
			c0,0.236,0.006,0.46,0.018,0.663c0.015,0.25,0.097,0.469,0.244,0.65c0.129,0.186,0.312,0.312,0.546,0.376
			c0.177,0.047,0.358,0.094,0.547,0.142l0.063,0.008c0.119,0,0.215,0.008,0.286,0.027c0.114,0.027,0.229,0.042,0.344,0.042
			s0.229-0.014,0.325-0.038c0.107-0.019,0.209-0.02,0.311,0c0.17,0.03,0.335,0.016,0.49-0.042c0.326-0.07,0.622-0.147,0.88-0.229
			c0.271-0.087,0.546-0.206,0.829-0.36c0.786-0.492,1.407-1.193,1.847-2.084c0.415-0.841,0.817-1.711,1.204-2.606
			c0.048-0.146,0.09-0.284,0.125-0.415c0.035-0.127,0.073-0.238,0.113-0.335c0.67-1.597,1.308-3.237,1.895-4.879
			c0.58-1.624,1.214-3.257,1.886-4.855c0.188-0.468,0.371-0.947,0.545-1.425c0.18-0.489,0.361-0.964,0.538-1.404
			c0.072-0.169,0.135-0.337,0.184-0.5c0.046-0.147,0.103-0.311,0.169-0.488c0.257-0.653,0.514-1.313,0.771-1.979
			c0.256-0.665,0.513-1.323,0.761-1.958c0.032-0.065,0.055-0.127,0.071-0.193c0.007-0.027,0.017-0.054,0.038-0.097
			c0.072-0.167,0.155-0.405,0.255-0.727C155.943,11.904,155.669,11.62,155.479,11.493z"/>
	</g>
	<g>
		<path fill="#2BBAD9" d="M15.984,13.118c0.524,0,8.856,0.015,8.856,0.015l-7.791,13.866l15.622,0.017L17.491,0h-1.47
			c-2.562,0-4.929,1.366-6.211,3.586L0.96,18.913c-1.28,2.219-1.28,4.955,0,7.174L3.394,30.3l7.635-13.589
			C12.603,13.538,15.459,13.118,15.984,13.118z"/>
		<path fill="#2BBAD9" d="M48.235,27.032l0.546-0.945c1.282-2.22,1.282-4.955,0-7.174L39.933,3.586C38.652,1.366,36.282,0,33.721,0
			h-4.429l15.187,27.028L48.235,27.032z"/>
		<path fill="#2BBAD9" d="M26.797,37.395c-3.538,0.145-5.233-2.077-5.532-2.621c-0.288-0.527-3.999-7.337-4.228-7.757L9.375,40.658
			l0.435,0.755C11.092,43.634,13.459,45,16.021,45h17.7c2.562,0,4.931-1.366,6.212-3.587l2.31-4.002L26.797,37.395z"/>
		<path fill="#2BBAD9" d="M17.027,26.998c0,0,0.003,0.007,0.01,0.019l0.012-0.019H17.027z"/>
	</g>
</g>
</svg>
