<?xml version="1.0" encoding="utf-8"?>
<!-- Generator: Adobe Illustrator 16.0.0, SVG Export Plug-In . SVG Version: 6.00 Build 0)  -->
<!DOCTYPE svg PUBLIC "-//W3C//DTD SVG 1.1 Tiny//EN" "http://www.w3.org/Graphics/SVG/1.1/DTD/svg11-tiny.dtd">
<svg version="1.1" baseProfile="tiny" id="Layer_1" xmlns="http://www.w3.org/2000/svg" xmlns:xlink="http://www.w3.org/1999/xlink"
	 x="0px" y="0px" width="43.984px" height="23.434px" viewBox="0 0 43.984 23.434" xml:space="preserve">
<g>
	<path fill="#E6E6EC" d="M26.174,17.844c-1.642,0-3.187-0.64-4.347-1.801c-1.151-1.151-1.748-2.648-1.793-4.158
		c0.001-0.063,0.004-0.126,0.004-0.189h-0.009c0-1.574,0.6-3.149,1.798-4.348c1.161-1.162,2.705-1.801,4.347-1.801
		c1.643,0,3.187,0.639,4.348,1.801l3.953-3.953c-2.217-2.217-5.165-3.438-8.301-3.438c-0.28,0-0.558,0.013-0.834,0.033H3.339v5.496
		h12.877c-1.205,1.934-1.796,4.143-1.771,6.347c-0.035,1.591-0.669,3.081-1.797,4.21c-1.162,1.161-2.706,1.801-4.348,1.801
		c-1.643,0-3.186-0.64-4.348-1.801L0,19.996c2.217,2.216,5.165,3.438,8.3,3.438s6.083-1.221,8.3-3.438
		c0.224-0.224,0.435-0.458,0.638-0.695c0.202,0.238,0.413,0.47,0.637,0.695c2.218,2.216,5.165,3.438,8.3,3.438
		c3.136,0,6.084-1.221,8.301-3.438l-3.953-3.953C29.361,17.205,27.817,17.844,26.174,17.844z"/>
	<polygon fill="#E6E6EC" points="38.487,-0.01 38.487,8.947 34.367,8.947 34.367,14.444 38.487,14.444 38.487,23.373 43.984,23.373 
		43.984,-0.01 	"/>
</g>
</svg>
